<svg width="146" height="40" viewBox="0 0 146 40" fill="none" xmlns="http://www.w3.org/2000/svg">
<path d="M53.412 10.58H55.164V8.6H53.412V10.58ZM50.76 31.76H52.02C54.116 31.76 55.164 30.688 55.164 28.544V13.04H53.412V28.1C53.412 28.804 53.24 29.304 52.896 29.6C52.552 29.904 52.084 30.056 51.492 30.056H50.76V31.76ZM64.1154 26.36C65.3954 26.36 66.4914 26.072 67.4034 25.496C68.3234 24.92 69.0274 24.12 69.5154 23.096C70.0114 22.064 70.2594 20.868 70.2594 19.508C70.2594 18.172 70.0154 16.992 69.5274 15.968C69.0474 14.936 68.3474 14.132 67.4274 13.556C66.5154 12.972 65.4114 12.68 64.1154 12.68C62.8514 12.68 61.7594 12.968 60.8394 13.544C59.9274 14.112 59.2234 14.908 58.7274 15.932C58.2314 16.956 57.9834 18.148 57.9834 19.508C57.9834 20.844 58.2234 22.028 58.7034 23.06C59.1914 24.092 59.8914 24.9 60.8034 25.484C61.7234 26.068 62.8274 26.36 64.1154 26.36ZM64.1154 24.668C62.7154 24.668 61.6554 24.2 60.9354 23.264C60.2154 22.32 59.8554 21.068 59.8554 19.508C59.8554 17.996 60.2034 16.764 60.8994 15.812C61.5954 14.852 62.6674 14.372 64.1154 14.372C65.5474 14.372 66.6154 14.84 67.3194 15.776C68.0314 16.704 68.3874 17.948 68.3874 19.508C68.3874 21.036 68.0354 22.28 67.3314 23.24C66.6274 24.192 65.5554 24.668 64.1154 24.668ZM72.8946 26H74.4786V24.188C74.9426 24.86 75.5306 25.392 76.2426 25.784C76.9546 26.168 77.7826 26.36 78.7266 26.36C79.9426 26.36 80.9786 26.06 81.8346 25.46C82.6906 24.852 83.3426 24.032 83.7906 23C84.2466 21.968 84.4746 20.804 84.4746 19.508C84.4746 18.22 84.2466 17.06 83.7906 16.028C83.3426 14.996 82.6946 14.18 81.8466 13.58C80.9986 12.98 79.9826 12.68 78.7986 12.68C77.9026 12.68 77.1066 12.848 76.4106 13.184C75.7226 13.512 75.1426 13.972 74.6706 14.564V8.72H72.8946V26ZM78.5466 24.716C77.6266 24.716 76.8666 24.492 76.2666 24.044C75.6666 23.588 75.2186 22.968 74.9226 22.184C74.6266 21.4 74.4786 20.508 74.4786 19.508C74.4786 17.98 74.8106 16.736 75.4746 15.776C76.1466 14.808 77.1586 14.324 78.5106 14.324C79.4386 14.324 80.2026 14.552 80.8026 15.008C81.4106 15.464 81.8626 16.084 82.1586 16.868C82.4546 17.652 82.6026 18.532 82.6026 19.508C82.6026 20.492 82.4506 21.376 82.1466 22.16C81.8506 22.944 81.4026 23.568 80.8026 24.032C80.2026 24.488 79.4506 24.716 78.5466 24.716ZM91.8285 26.348C93.4205 26.348 94.6685 26 95.5725 25.304C96.4845 24.6 96.9405 23.636 96.9405 22.412C96.9405 21.74 96.7965 21.176 96.5085 20.72C96.2285 20.264 95.7445 19.868 95.0565 19.532C94.3765 19.196 93.4405 18.876 92.2485 18.572C91.2325 18.316 90.4485 18.08 89.8965 17.864C89.3525 17.648 88.9765 17.42 88.7685 17.18C88.5605 16.932 88.4565 16.636 88.4565 16.292C88.4565 15.676 88.7445 15.184 89.3205 14.816C89.8965 14.448 90.6445 14.272 91.5645 14.288C92.5405 14.304 93.3445 14.536 93.9765 14.984C94.6085 15.424 94.9885 16.024 95.1165 16.784L96.9165 16.46C96.8285 15.708 96.5485 15.048 96.0765 14.48C95.6045 13.912 94.9805 13.472 94.2045 13.16C93.4365 12.84 92.5645 12.68 91.5885 12.68C90.6125 12.68 89.7525 12.836 89.0085 13.148C88.2725 13.452 87.6965 13.884 87.2805 14.444C86.8725 14.996 86.6685 15.64 86.6685 16.376C86.6685 16.976 86.8045 17.488 87.0765 17.912C87.3565 18.328 87.8325 18.7 88.5045 19.028C89.1765 19.348 90.0965 19.668 91.2645 19.988C92.3605 20.284 93.1805 20.54 93.7245 20.756C94.2765 20.972 94.6445 21.208 94.8285 21.464C95.0125 21.712 95.1045 22.036 95.1045 22.436C95.1045 23.14 94.8205 23.7 94.2525 24.116C93.6845 24.532 92.9085 24.74 91.9245 24.74C90.9165 24.74 90.0685 24.524 89.3805 24.092C88.6925 23.652 88.2565 23.064 88.0725 22.328L86.2725 22.628C86.4965 23.796 87.0965 24.708 88.0725 25.364C89.0565 26.02 90.3085 26.348 91.8285 26.348ZM106.658 26V24.452C105.73 24.604 104.95 24.628 104.318 24.524C103.694 24.42 103.238 24.1 102.95 23.564C102.798 23.284 102.714 22.964 102.698 22.604C102.69 22.236 102.686 21.78 102.686 21.236V14.552H106.658V13.04H102.686V9.44H100.934V13.04H98.1619V14.552H100.934V21.308C100.934 21.94 100.942 22.504 100.958 23C100.982 23.496 101.11 23.98 101.342 24.452C101.63 25.028 102.05 25.452 102.602 25.724C103.162 25.996 103.794 26.148 104.498 26.18C105.21 26.212 105.93 26.152 106.658 26ZM112.919 26.36C115.183 26.36 116.827 25.524 117.851 23.852V26H119.423V17.948C119.423 17.468 119.399 16.996 119.351 16.532C119.303 16.068 119.199 15.648 119.039 15.272C118.695 14.432 118.107 13.792 117.275 13.352C116.451 12.904 115.447 12.68 114.263 12.68C112.839 12.68 111.679 13 110.783 13.64C109.887 14.28 109.287 15.18 108.983 16.34L110.699 16.844C110.947 15.98 111.375 15.348 111.983 14.948C112.599 14.548 113.351 14.348 114.239 14.348C115.471 14.348 116.351 14.636 116.879 15.212C117.407 15.78 117.679 16.648 117.695 17.816C117.119 17.896 116.483 17.98 115.787 18.068C115.099 18.156 114.407 18.256 113.711 18.368C113.015 18.48 112.375 18.608 111.791 18.752C110.823 19.008 110.031 19.436 109.415 20.036C108.799 20.628 108.491 21.456 108.491 22.52C108.491 23.208 108.655 23.844 108.983 24.428C109.311 25.012 109.803 25.48 110.459 25.832C111.123 26.184 111.943 26.36 112.919 26.36ZM113.123 24.836C112.427 24.836 111.867 24.724 111.443 24.5C111.027 24.268 110.723 23.976 110.531 23.624C110.347 23.264 110.255 22.896 110.255 22.52C110.255 21.816 110.491 21.288 110.963 20.936C111.435 20.584 111.947 20.328 112.499 20.168C113.211 19.976 114.039 19.82 114.983 19.7C115.927 19.58 116.823 19.468 117.671 19.364C117.671 19.66 117.659 20 117.635 20.384C117.619 20.76 117.575 21.108 117.503 21.428C117.335 22.404 116.871 23.216 116.111 23.864C115.359 24.512 114.363 24.836 113.123 24.836ZM127.383 26.348C128.975 26.348 130.223 26 131.127 25.304C132.039 24.6 132.495 23.636 132.495 22.412C132.495 21.74 132.351 21.176 132.063 20.72C131.783 20.264 131.299 19.868 130.611 19.532C129.931 19.196 128.995 18.876 127.803 18.572C126.787 18.316 126.003 18.08 125.451 17.864C124.907 17.648 124.531 17.42 124.323 17.18C124.115 16.932 124.011 16.636 124.011 16.292C124.011 15.676 124.299 15.184 124.875 14.816C125.451 14.448 126.199 14.272 127.119 14.288C128.095 14.304 128.899 14.536 129.531 14.984C130.163 15.424 130.543 16.024 130.671 16.784L132.471 16.46C132.383 15.708 132.103 15.048 131.631 14.48C131.159 13.912 130.535 13.472 129.759 13.16C128.991 12.84 128.119 12.68 127.143 12.68C126.167 12.68 125.307 12.836 124.563 13.148C123.827 13.452 123.251 13.884 122.835 14.444C122.427 14.996 122.223 15.64 122.223 16.376C122.223 16.976 122.359 17.488 122.631 17.912C122.911 18.328 123.387 18.7 124.059 19.028C124.731 19.348 125.651 19.668 126.819 19.988C127.915 20.284 128.735 20.54 129.279 20.756C129.831 20.972 130.199 21.208 130.383 21.464C130.567 21.712 130.659 22.036 130.659 22.436C130.659 23.14 130.375 23.7 129.807 24.116C129.239 24.532 128.463 24.74 127.479 24.74C126.471 24.74 125.623 24.524 124.935 24.092C124.247 23.652 123.811 23.064 123.627 22.328L121.827 22.628C122.051 23.796 122.651 24.708 123.627 25.364C124.611 26.02 125.863 26.348 127.383 26.348ZM136.536 31.76H138.3L145.26 13.04H143.46L139.536 23.696L135.276 13.04H133.404L138.672 25.964L136.536 31.76Z" fill="#4449B0"/>
<g clip-path="url(#clip0_114_510)">
<path d="M20 0C8.9543 0 0 8.9543 0 20C0 31.0457 8.9543 40 20 40C31.0457 40 40 31.0457 40 20C40 8.9543 31.0457 0 20 0ZM20 37.5C10.335 37.5 2.5 29.665 2.5 20C2.5 10.335 10.335 2.5 20 2.5C29.665 2.5 37.5 10.335 37.5 20C37.5 29.665 29.665 37.5 20 37.5Z" fill="#4449B0"/>
<path d="M13.75 16.25C15.1307 16.25 16.25 15.1307 16.25 13.75C16.25 12.3693 15.1307 11.25 13.75 11.25C12.3693 11.25 11.25 12.3693 11.25 13.75C11.25 15.1307 12.3693 16.25 13.75 16.25Z" fill="#4449B0"/>
<path d="M26.25 16.25C27.6307 16.25 28.75 15.1307 28.75 13.75C28.75 12.3693 27.6307 11.25 26.25 11.25C24.8693 11.25 23.75 12.3693 23.75 13.75C23.75 15.1307 24.8693 16.25 26.25 16.25Z" fill="#4449B0"/>
<path d="M28.75 20C28.75 24.8325 24.8325 28.75 20 28.75C15.1675 28.75 11.25 24.8325 11.25 20H8.75C8.75 26.2132 13.7868 31.25 20 31.25C26.2132 31.25 31.25 26.2132 31.25 20H28.75Z" fill="#4449B0"/>
</g>
<defs>
<clipPath id="clip0_114_510">
<rect width="40" height="40" fill="white"/>
</clipPath>
</defs>
</svg>
